<svg width="120" height="120" viewBox="0 0 120 120" fill="none" xmlns="http://www.w3.org/2000/svg">
<g clip-path="url(#clip0_8348_60)">
<path d="M82.5 0H37.5C27.5544 0 18.0161 3.95088 10.9835 10.9835C3.95088 18.0161 0 27.5544 0 37.5L0 82.5C0 92.4456 3.95088 101.984 10.9835 109.017C18.0161 116.049 27.5544 120 37.5 120H82.5C92.4456 120 101.984 116.049 109.017 109.017C116.049 101.984 120 92.4456 120 82.5V37.5C120 27.5544 116.049 18.0161 109.017 10.9835C101.984 3.95088 92.4456 0 82.5 0ZM108.75 82.5C108.75 96.975 96.975 108.75 82.5 108.75H37.5C23.025 108.75 11.25 96.975 11.25 82.5V37.5C11.25 23.025 23.025 11.25 37.5 11.25H82.5C96.975 11.25 108.75 23.025 108.75 37.5V82.5Z" fill="url(#paint0_linear_8348_60)"/>
<path d="M60 30C52.0435 30 44.4129 33.1607 38.7868 38.7868C33.1607 44.4129 30 52.0435 30 60C30 67.9565 33.1607 75.5871 38.7868 81.2132C44.4129 86.8393 52.0435 90 60 90C67.9565 90 75.5871 86.8393 81.2132 81.2132C86.8393 75.5871 90 67.9565 90 60C90 52.0435 86.8393 44.4129 81.2132 38.7868C75.5871 33.1607 67.9565 30 60 30ZM60 78.75C55.029 78.744 50.2633 76.7667 46.7483 73.2517C43.2333 69.7367 41.256 64.971 41.25 60C41.25 49.6575 49.665 41.25 60 41.25C70.335 41.25 78.75 49.6575 78.75 60C78.75 70.335 70.335 78.75 60 78.75Z" fill="url(#paint1_linear_8348_60)"/>
<path d="M92.25 31.7475C94.4578 31.7475 96.2475 29.9578 96.2475 27.75C96.2475 25.5422 94.4578 23.7525 92.25 23.7525C90.0422 23.7525 88.2525 25.5422 88.2525 27.75C88.2525 29.9578 90.0422 31.7475 92.25 31.7475Z" fill="url(#paint2_linear_8348_60)"/>
</g>
<defs>
<linearGradient id="paint0_linear_8348_60" x1="10.98" y1="109.02" x2="109.02" y2="10.98" gradientUnits="userSpaceOnUse">
<stop stop-color="#FFC107"/>
<stop offset="0.507" stop-color="#F44336"/>
<stop offset="0.99" stop-color="#9C27B0"/>
</linearGradient>
<linearGradient id="paint1_linear_8348_60" x1="38.79" y1="81.21" x2="81.21" y2="38.79" gradientUnits="userSpaceOnUse">
<stop stop-color="#FFC107"/>
<stop offset="0.507" stop-color="#F44336"/>
<stop offset="0.99" stop-color="#9C27B0"/>
</linearGradient>
<linearGradient id="paint2_linear_8348_60" x1="89.4225" y1="30.5775" x2="95.0775" y2="24.9225" gradientUnits="userSpaceOnUse">
<stop stop-color="#FFC107"/>
<stop offset="0.507" stop-color="#F44336"/>
<stop offset="0.99" stop-color="#9C27B0"/>
</linearGradient>
<clipPath id="clip0_8348_60">
<rect width="120" height="120" fill="white"/>
</clipPath>
</defs>
</svg>
