<svg width="120" height="120" viewBox="0 0 120 120" fill="none" xmlns="http://www.w3.org/2000/svg">
<g clip-path="url(#clip0_8348_64)">
<path d="M59.9999 0.000198364C26.8626 0.000198364 0 26.8628 0 60.0001C0 93.1373 26.8626 120 59.9999 120C93.1371 120 120 93.1373 120 60.0001C120 26.8628 93.1366 0.000198364 59.9999 0.000198364ZM43.9918 89.0073H30.8182V46.4472H43.9918V89.0073ZM37.3422 40.8736C33.0399 40.8736 29.5521 37.3574 29.5521 33.0206C29.5521 28.6833 33.0404 25.1673 37.3422 25.1673C41.6441 25.1673 45.1319 28.6833 45.1319 33.0206C45.1322 37.3576 41.6443 40.8736 37.3422 40.8736ZM93.3598 89.0073H80.2501V66.6668C80.2501 60.5394 77.9226 57.1191 73.0775 57.1191C67.8045 57.1191 65.0498 60.6813 65.0498 66.6668V89.0073H52.4148V46.4472H65.0498V52.1793C65.0498 52.1793 68.8504 45.149 77.8749 45.149C86.8996 45.149 93.36 50.6594 93.36 62.0588L93.3598 89.0073Z" fill="url(#paint0_linear_8348_64)"/>
</g>
<defs>
<linearGradient id="paint0_linear_8348_64" x1="17.5735" y1="17.5737" x2="102.426" y2="102.426" gradientUnits="userSpaceOnUse">
<stop stop-color="#2489BE"/>
<stop offset="1" stop-color="#0575B3"/>
</linearGradient>
<clipPath id="clip0_8348_64">
<rect width="120" height="120" fill="white"/>
</clipPath>
</defs>
</svg>
